<svg viewBox="0 40 240 170" xmlns="http://www.w3.org/2000/svg" role="img" aria-label="Bottarella">
  <ellipse cx="84" cy="150" rx="13" ry="19" fill="#2bc7ab" transform="rotate(-28 84 150)"/>
  <ellipse cx="156" cy="150" rx="13" ry="19" fill="#2bc7ab" transform="rotate(28 156 150)"/>
  <g fill="#F6F1E7" stroke="#e4ddce" stroke-width="1.6">
    <circle cx="120" cy="88" r="42"/><circle cx="82" cy="106" r="33"/><circle cx="158" cy="106" r="33"/>
    <circle cx="66" cy="138" r="27"/><circle cx="174" cy="138" r="27"/><circle cx="120" cy="150" r="48"/>
  </g>
  <rect x="84" y="122" width="72" height="72" rx="33" fill="#49EACB"/>
  <g fill="#F6F1E7" stroke="#e4ddce" stroke-width="1.6">
    <circle cx="104" cy="126" r="13"/><circle cx="136" cy="126" r="13"/><circle cx="120" cy="119" r="14.5"/>
  </g>
  <rect x="95" y="145" width="24" height="17" rx="6" fill="#0c0c0c"/>
  <rect x="121" y="145" width="24" height="17" rx="6" fill="#0c0c0c"/>
  <rect x="117" y="150" width="6" height="4" rx="2" fill="#0c0c0c"/>
  <path d="M100 159 L109 148" stroke="#49EACB" stroke-width="2.6" stroke-linecap="round" opacity="0.55"/>
  <path d="M126 159 L135 148" stroke="#49EACB" stroke-width="2.6" stroke-linecap="round" opacity="0.55"/>
  <ellipse cx="120" cy="173" rx="6" ry="4.6" fill="#0e352c"/>
  <path d="M107 180 Q120 190 133 180" fill="none" stroke="#0e352c" stroke-width="3" stroke-linecap="round"/>
</svg>
